<svg width="20" height="20" viewBox="0 0 20 20" fill="none" xmlns="http://www.w3.org/2000/svg">
<g clip-path="url(#clip0_280_5217)">
<path fill-rule="evenodd" clip-rule="evenodd" d="M10 20C15.5228 20 20 15.5228 20 10C20 4.47715 15.5228 0 10 0C4.47715 0 0 4.47715 0 10C0 15.5228 4.47715 20 10 20ZM11.876 5.00066C12.7982 5.16015 13.6959 5.43858 14.5464 5.82897C14.5538 5.83193 14.5599 5.83748 14.5635 5.84458C16.0451 8.02376 16.7769 10.4821 16.5033 13.312C16.5027 13.318 16.5009 13.3237 16.498 13.3289C16.4951 13.3341 16.4911 13.3387 16.4863 13.3422C15.3641 14.1663 14.277 14.6666 13.205 14.9982C13.1967 15.0007 13.1878 15.0006 13.1795 14.9978C13.1713 14.995 13.1641 14.9897 13.159 14.9826C12.9094 14.6363 12.6856 14.2721 12.4894 13.893C12.4867 13.8878 12.4851 13.8821 12.4848 13.8762C12.4845 13.8703 12.4854 13.8644 12.4875 13.8589C12.4896 13.8534 12.4928 13.8484 12.497 13.8443C12.5011 13.8401 12.5061 13.8368 12.5116 13.8347C12.866 13.7014 13.2085 13.5384 13.5355 13.3475C13.5414 13.3439 13.5464 13.339 13.5499 13.333C13.5535 13.3271 13.5555 13.3204 13.5559 13.3135C13.5563 13.3066 13.5549 13.2997 13.552 13.2935C13.5491 13.2872 13.5446 13.2818 13.5391 13.2777C13.4699 13.2261 13.402 13.1728 13.3354 13.1179C13.3294 13.113 13.3222 13.11 13.3146 13.109C13.307 13.1081 13.2993 13.1094 13.2924 13.1126C11.1706 14.0929 8.84615 14.0929 6.69899 13.1126C6.69209 13.1095 6.68446 13.1085 6.67698 13.1095C6.6695 13.1105 6.66244 13.1136 6.65661 13.1184C6.5901 13.173 6.52234 13.2261 6.45339 13.2777C6.44789 13.2818 6.44351 13.2873 6.44063 13.2936C6.43774 13.2999 6.43645 13.3068 6.43686 13.3137C6.43726 13.3206 6.43936 13.3272 6.44297 13.3331C6.44657 13.339 6.45157 13.3439 6.45752 13.3475C6.78433 13.5349 7.12407 13.6999 7.48092 13.8352C7.48643 13.8373 7.49145 13.8404 7.49566 13.8445C7.49986 13.8486 7.50314 13.8536 7.50529 13.859C7.50744 13.8645 7.50841 13.8703 7.50813 13.8762C7.50786 13.8821 7.50634 13.8878 7.50368 13.893C7.31076 14.2751 7.08582 14.6385 6.83347 14.9831C6.82823 14.99 6.82102 14.9952 6.81279 14.9979C6.80457 15.0006 6.79572 15.0007 6.78742 14.9982C5.72059 14.6666 4.63356 14.1663 3.51144 13.3422C3.50191 13.3346 3.49577 13.3236 3.49438 13.3115C3.26584 10.8636 3.73171 8.38508 5.43255 5.84406C5.43676 5.83738 5.44289 5.83212 5.45013 5.82897C6.30059 5.43823 7.19827 5.15979 8.12057 5.00066C8.12895 4.99931 8.13754 5.00053 8.14521 5.00416C8.15288 5.00779 8.15927 5.01366 8.16354 5.021C8.27938 5.22606 8.41176 5.48898 8.50124 5.70401C9.48895 5.553 10.4921 5.553 11.5006 5.70401C11.59 5.4937 11.7178 5.22606 11.8331 5.021C11.8372 5.01354 11.8436 5.00757 11.8513 5.00392C11.859 5.00027 11.8676 4.99913 11.876 5.00066ZM6.6452 10.4987C6.6452 11.2276 7.17786 11.821 7.82433 11.821C8.48103 11.821 9.00333 11.2276 9.00333 10.4987C9.01369 9.7751 8.48621 9.17639 7.82433 9.17639C7.16756 9.17639 6.6452 9.76986 6.6452 10.4987ZM11.0047 10.4987C11.0047 11.2276 11.5373 11.821 12.1837 11.821C12.8456 11.821 13.3628 11.2276 13.3628 10.4987C13.3731 9.7751 12.8456 9.17639 12.1837 9.17639C11.527 9.17639 11.0047 9.76986 11.0047 10.4987Z" fill="white" fill-opacity="0.7"/>
</g>
<defs>
<clipPath id="clip0_280_5217">
<rect width="20" height="20" fill="white"/>
</clipPath>
</defs>
</svg>
