<svg width="16" height="16" viewBox="0 0 16 16" fill="none" xmlns="http://www.w3.org/2000/svg">
<g clip-path="url(#clip0_280_3893)">
<path d="M6.70289 1.39608C7.45036 0.759049 8.54982 0.759043 9.29736 1.39608L10.196 2.16192C10.3028 2.25291 10.4355 2.30789 10.5754 2.31905L11.7524 2.41298C12.7314 2.4911 13.5088 3.26854 13.587 4.24755L13.6809 5.42454C13.692 5.56437 13.747 5.69713 13.838 5.80391L14.6038 6.70261C15.2409 7.45008 15.2409 8.54954 14.6038 9.29708L13.838 10.1957C13.747 10.3025 13.692 10.4353 13.6808 10.5751L13.587 11.7521C13.5088 12.7311 12.7314 13.5085 11.7524 13.5866L10.5754 13.6805C10.4355 13.6917 10.3028 13.7467 10.196 13.8377L9.29736 14.6035C8.54982 15.2406 7.45036 15.2405 6.70282 14.6035L5.80416 13.8377C5.69739 13.7467 5.56466 13.6917 5.42482 13.6806L4.24785 13.5866C3.26882 13.5085 2.4914 12.7311 2.41327 11.7521L2.31933 10.5751C2.30817 10.4353 2.25318 10.3025 2.1622 10.1957L1.39636 9.29701C0.759325 8.54954 0.759318 7.45014 1.39634 6.70261L2.16218 5.80394C2.25318 5.69716 2.30818 5.56437 2.31934 5.42453L2.41326 4.24754C2.49138 3.26853 3.2688 2.49111 4.24782 2.41298L5.42482 2.31906C5.56466 2.3079 5.69742 2.25291 5.8042 2.16192L6.70289 1.39608ZM8.43249 2.41089C8.18336 2.19856 7.81682 2.19855 7.56769 2.41089L6.66902 3.17674C6.34869 3.44972 5.95041 3.61468 5.53087 3.64816L4.35389 3.74209C4.02755 3.76814 3.76841 4.02727 3.74237 4.35362L3.64844 5.53063C3.61496 5.95015 3.44999 6.3484 3.17702 6.66874L2.41118 7.56741C2.19884 7.81654 2.19883 8.18308 2.41118 8.43221L3.17702 9.33088C3.45 9.65121 3.61496 10.0495 3.64846 10.469L3.74238 11.646C3.76841 11.9723 4.02755 12.2315 4.3539 12.2575L5.53086 12.3515C5.95038 12.3849 6.34869 12.5499 6.66902 12.8229L7.56769 13.5887C7.81689 13.8011 8.18336 13.8011 8.43249 13.5887L9.33122 12.8229C9.65149 12.5499 10.0498 12.3849 10.4693 12.3515L11.6463 12.2575C11.9726 12.2315 12.2318 11.9723 12.2578 11.646L12.3518 10.469C12.3852 10.0495 12.5502 9.65121 12.8232 9.33094L13.589 8.43221C13.8014 8.18308 13.8014 7.81661 13.589 7.56741L12.8232 6.66874C12.5502 6.3484 12.3852 5.95014 12.3518 5.53061L12.2578 4.35362C12.2318 4.02728 11.9726 3.76814 11.6463 3.74209L10.4693 3.64817C10.0498 3.6147 9.65149 3.44971 9.33116 3.17673L8.43249 2.41089ZM9.88556 5.17146L10.8284 6.11428L6.11432 10.8283L5.17151 9.88548L9.88556 5.17146ZM6.82142 6.82134C6.4309 7.21188 5.79774 7.21188 5.40721 6.82134C5.01668 6.43088 5.01668 5.79769 5.40721 5.40716C5.79774 5.01664 6.4309 5.01664 6.82142 5.40716C7.21196 5.79769 7.21196 6.43088 6.82142 6.82134ZM9.17842 10.5926C9.56896 10.9831 10.2021 10.9831 10.5926 10.5926C10.9832 10.2021 10.9832 9.56894 10.5926 9.17841C10.2021 8.78788 9.56896 8.78788 9.17842 9.17841C8.78789 9.56894 8.78789 10.2021 9.17842 10.5926Z" fill="white" fill-opacity="0.7"/>
</g>
<defs>
<clipPath id="clip0_280_3893">
<rect width="16" height="16" fill="white"/>
</clipPath>
</defs>
</svg>
