<svg width="20" height="20" viewBox="0 0 20 20" fill="none" xmlns="http://www.w3.org/2000/svg">
<g clip-path="url(#clip0_280_5215)">
<path fill-rule="evenodd" clip-rule="evenodd" d="M9.99904 0.0280762C4.47771 0.0280762 -1.52588e-05 4.5052 -1.52588e-05 10.0284C-1.52588e-05 14.4459 2.86502 18.1943 6.83873 19.5174C7.33906 19.6088 7.52138 19.2999 7.52138 19.0348C7.52138 18.7972 7.51279 18.1686 7.50787 17.3343C4.72634 17.9384 4.13946 15.9936 4.13946 15.9936C3.68456 14.8383 3.02893 14.5306 3.02893 14.5306C2.12098 13.9106 3.09768 13.9229 3.09768 13.9229C4.1014 13.9935 4.62934 14.9536 4.62934 14.9536C5.52132 16.4816 6.97011 16.0402 7.5398 15.7843C7.63065 15.1384 7.8891 14.6977 8.17456 14.4477C5.95411 14.1948 3.61949 13.3373 3.61949 9.50536C3.61949 8.41324 4.00931 7.52126 4.64899 6.82204C4.54586 6.56911 4.20269 5.55249 4.74721 4.17553C4.74721 4.17553 5.58639 3.90665 7.49682 5.2001C8.29426 4.97849 9.15003 4.868 10.0003 4.8637C10.8499 4.868 11.7051 4.97849 12.5037 5.2001C14.4129 3.90665 15.2508 4.17553 15.2508 4.17553C15.7967 5.55249 15.4535 6.56911 15.351 6.82204C15.9919 7.52126 16.3786 8.41324 16.3786 9.50536C16.3786 13.3471 14.0403 14.1924 11.8131 14.4398C12.1716 14.7486 12.4914 15.3589 12.4914 16.2919C12.4914 17.6283 12.4792 18.707 12.4792 19.0348C12.4792 19.3025 12.6597 19.6137 13.1667 19.516C17.1374 18.1907 20 14.4453 20 10.0284C20 4.5052 15.5222 0.0280762 9.99904 0.0280762Z" fill="white" fill-opacity="0.7"/>
</g>
<defs>
<clipPath id="clip0_280_5215">
<rect width="20" height="20" fill="white"/>
</clipPath>
</defs>
</svg>
