<svg width="19" height="18" viewBox="0 0 19 18" fill="none" xmlns="http://www.w3.org/2000/svg">
<path d="M2.1875 2.09155V15.908C2.18759 15.9379 2.19653 15.9672 2.2132 15.9921C2.22987 16.017 2.25352 16.0365 2.28119 16.048C2.30886 16.0595 2.33932 16.0626 2.36875 16.0569C2.39817 16.0512 2.42526 16.0369 2.4466 16.0159L9.64062 9.0001L2.4466 1.98362C2.42526 1.96257 2.39817 1.9483 2.36875 1.94259C2.33932 1.93687 2.30886 1.93997 2.28119 1.9515C2.25352 1.96302 2.22987 1.98246 2.2132 2.00738C2.19653 2.03229 2.18759 2.06157 2.1875 2.09155ZM12.657 6.11729L3.63664 1.1476L3.63102 1.14444C3.47562 1.06007 3.32797 1.2703 3.45523 1.39264L10.5262 8.15389L12.657 6.11729ZM3.45594 16.6076C3.32797 16.7299 3.47562 16.9401 3.63172 16.8558L3.63734 16.8526L12.657 11.8829L10.5262 9.84561L3.45594 16.6076ZM16.2985 8.1212L13.7796 6.73393L11.4111 9.0001L13.7796 11.2652L16.2985 9.87901C16.9837 9.50038 16.9837 8.49983 16.2985 8.1212Z" fill="white"/>
</svg>
