<svg width="20" height="20" viewBox="0 0 20 20" fill="none" xmlns="http://www.w3.org/2000/svg">
<g clip-path="url(#clip0_280_5227)">
<path fill-rule="evenodd" clip-rule="evenodd" d="M10 20C15.5228 20 20 15.5228 20 10C20 4.47715 15.5228 0 10 0C4.47715 0 0 4.47715 0 10C0 15.5228 4.47715 20 10 20ZM4 10C4 6.68641 6.68641 4 10 4C13.3136 4 16 6.68641 16 10C16 13.3136 13.3136 16 10 16C6.68641 16 4 13.3136 4 10ZM6.706 7.60002C6.98901 6.52502 7.4518 5.61081 8.0362 4.97521C6.78599 5.46541 5.76201 6.40799 5.16599 7.60002H6.706ZM4.9202 8.2C4.71899 8.76421 4.6 9.36721 4.6 10C4.6 10.6328 4.71899 11.2358 4.9202 11.8H6.5722C6.46441 11.2306 6.4 10.629 6.4 10C6.4 9.37101 6.46441 8.76939 6.57241 8.2H4.9202ZM6.706 12.4H5.16599C5.76201 13.592 6.78599 14.5346 8.0362 15.0248C7.4518 14.3892 6.9892 13.475 6.706 12.4ZM7.3244 12.4C7.78101 14.0066 8.6732 15.1782 9.7 15.3716V12.4H7.3244ZM7.18141 11.8H9.7V8.2H7.18141C7.066 8.76639 7 9.3718 7 10C7 10.6282 7.066 11.2336 7.18141 11.8ZM7.3244 7.6H9.7V4.62841C8.6732 4.82179 7.78101 5.99341 7.3244 7.6ZM13.294 7.6H14.834C14.238 6.40799 13.214 5.46541 11.9638 4.97519C12.5482 5.61079 13.0108 6.52499 13.294 7.6ZM12.6756 7.6C12.219 5.99341 11.3268 4.82181 10.3 4.62841V7.6H12.6756ZM12.8186 8.2H10.3V11.8H12.8186C12.934 11.2336 13 10.6282 13 10C13 9.3718 12.934 8.76639 12.8186 8.2ZM10.3 12.4V15.3716C11.3268 15.1782 12.219 14.0066 12.6756 12.4H10.3ZM13.294 12.4C13.0108 13.475 12.5482 14.389 11.9638 15.0248C13.214 14.5346 14.238 13.592 14.834 12.4H13.294ZM13.6 10C13.6 10.629 13.5356 11.2306 13.4276 11.8H15.0798C15.281 11.2358 15.4 10.6328 15.4 10C15.4 9.36721 15.281 8.76421 15.08 8.2H13.4278C13.5356 8.76939 13.6 9.37101 13.6 10Z" fill="white" fill-opacity="0.7"/>
</g>
<defs>
<clipPath id="clip0_280_5227">
<rect width="20" height="20" fill="white"/>
</clipPath>
</defs>
</svg>
