<svg width="20" height="20" viewBox="0 0 20 20" fill="none" xmlns="http://www.w3.org/2000/svg">
<g clip-path="url(#clip0_280_5223)">
<path fill-rule="evenodd" clip-rule="evenodd" d="M10 20C15.5228 20 20 15.5228 20 10C20 4.47715 15.5228 0 10 0C4.47715 0 0 4.47715 0 10C0 15.5228 4.47715 20 10 20ZM14.9126 5H13.2155L10.4198 8.19471L8.00393 5H4.50393L8.68422 10.4688L4.72028 15H6.4198L9.47749 11.5048L12.153 15H15.5664L11.2059 9.23558L14.9126 5ZM13.5592 13.9856H12.6193L6.4823 5.96154H7.49191L13.5592 13.9856Z" fill="white" fill-opacity="0.7"/>
</g>
<defs>
<clipPath id="clip0_280_5223">
<rect width="20" height="20" fill="white"/>
</clipPath>
</defs>
</svg>
